<svg xmlns="http://www.w3.org/2000/svg" viewBox="0 0 77.03 13.11" fill="#007aff">
  <path d="M0,9.11V3A1.67,1.67,0,0,1,1.75,1.12c.93,0,1.57.48,2,1.68L5,6.31h.09L6.33,2.78c.42-1.21,1-1.66,2-1.66A1.63,1.63,0,0,1,10.07,3V9.11c0,.93-.49,1.48-1.31,1.48s-1.25-.52-1.25-1.48V5.32h0L6.22,8.75c-.29.79-.66,1-1.18,1s-.9-.27-1.18-1L2.59,5.32h0V9.11c0,.93-.49,1.48-1.32,1.48S0,10.07,0,9.11Z"/>
  <path d="M11.84,11.15c.23,0,.34,0,.63,0a.63.63,0,0,0,.61-.27.88.88,0,0,0,.06-.36L11.28,5a1.82,1.82,0,0,1-.1-.6A1.27,1.27,0,0,1,12.53,3.1,1.36,1.36,0,0,1,14,4.36l.83,4.16h.11l.9-4.16c.18-.85.63-1.26,1.39-1.26a1.24,1.24,0,0,1,1.3,1.26,1.87,1.87,0,0,1-.11.6l-1.82,5.47a3.4,3.4,0,0,1-3.67,2.68,2.2,2.2,0,0,1-1.54-.46,1,1,0,0,1-.3-.72A.75.75,0,0,1,11.84,11.15Z"/>
  <path d="M23.54,13c-.9,0-1.38-.53-1.38-1.52V4.61c0-1,.48-1.51,1.38-1.51a1.25,1.25,0,0,1,1.39,1.22h.14a2.06,2.06,0,0,1,2.05-1.27c1.67,0,2.62,1.24,2.62,3.46V7.1c0,2.22-.95,3.49-2.62,3.49a2.06,2.06,0,0,1-2.05-1.25h-.14v2.17C24.93,12.5,24.45,13,23.54,13ZM25.89,8.5c.61,0,1-.54,1-1.45V6.59c0-.92-.36-1.45-1-1.45s-1,.53-1,1.45v.46C24.93,8,25.29,8.5,25.89,8.5Z"/>
  <path d="M32.13,10.59c-.92,0-1.35-.55-1.35-1.52V4.61c0-1,.47-1.51,1.36-1.51a1.2,1.2,0,0,1,1.32,1.23h.14A1.42,1.42,0,0,1,35,3.05a1.1,1.1,0,0,1,.83.31,1.21,1.21,0,0,1,.3.87,1.08,1.08,0,0,1-.29.81,1.33,1.33,0,0,1-.87.29,1.35,1.35,0,0,0-1.41,1.55V9.07A1.34,1.34,0,0,1,32.13,10.59Z"/>
  <path d="M43.92,6.55V7a3.41,3.41,0,0,1-3.74,3.69,3.42,3.42,0,0,1-3.76-3.68V6.57A3.44,3.44,0,0,1,40.18,3,3.42,3.42,0,0,1,43.92,6.55ZM39.3,6.49v.68c0,1,.31,1.56.87,1.56S41,8.18,41,7.17V6.49c0-1-.29-1.55-.87-1.55S39.3,5.47,39.3,6.49Z"/>
  <path d="M43.7,12.7a.91.91,0,0,1-.28-.7.75.75,0,0,1,.79-.79h.3c.28,0,.42-.12.42-.54V4.61c0-1,.49-1.51,1.39-1.51s1.38.53,1.38,1.51v6A2.35,2.35,0,0,1,45,13.1,1.87,1.87,0,0,1,43.7,12.7ZM46.32,0a1.29,1.29,0,0,1,1.42,1.25,1.44,1.44,0,0,1-2.85,0A1.29,1.29,0,0,1,46.32,0Z"/>
  <path d="M48.77,6.54A3.4,3.4,0,0,1,52.44,3,3.29,3.29,0,0,1,56,6.19c0,.87-.38,1.22-1.33,1.22h-3v.21a1.16,1.16,0,0,0,1.32,1.1,2.3,2.3,0,0,0,1-.18,1.84,1.84,0,0,1,.92-.32.84.84,0,0,1,.9.9,1.35,1.35,0,0,1-.85,1.17,4.71,4.71,0,0,1-2.17.44c-2.45,0-3.95-1.34-3.95-3.58ZM53.38,6h0a.9.9,0,0,0-.88-1c-.59,0-.9.41-.9,1h1.78Z"/>
  <path d="M56.68,6.43C56.68,4.39,58,3,60.4,3a4.15,4.15,0,0,1,2.41.67,1.44,1.44,0,0,1,.65,1.12,1,1,0,0,1-1,1,1.59,1.59,0,0,1-.92-.36,1.45,1.45,0,0,0-.88-.33c-.72,0-1.06.58-1.06,1.49V7c0,1,.21,1.63,1.09,1.63a1.67,1.67,0,0,0,1-.37,1.48,1.48,0,0,1,.87-.33.94.94,0,0,1,1,1,1.58,1.58,0,0,1-.83,1.26,4.17,4.17,0,0,1-2.27.59,3.35,3.35,0,0,1-3.71-3.64Z"/>
  <path d="M65.31,5.34h-.12a1,1,0,0,1-1.12-1c0-.65.4-1,1.12-1h.21V2.71c0-.94.47-1.45,1.33-1.45s1.33.51,1.33,1.45v.58h.35c.72,0,1.12.37,1.12,1a1,1,0,0,1-1.12,1H68.1V8c0,.49.14.7.5.7.18,0,.29,0,.52,0a.65.65,0,0,1,.65.73,1.17,1.17,0,0,1-.47.94,2.62,2.62,0,0,1-1.53.41c-1.65,0-2.46-.74-2.46-2.2Z"/>
  <path d="M71.33,8.19a2.39,2.39,0,0,1,1,.26,3.68,3.68,0,0,0,1.38.38c.47,0,.74-.16.74-.43s-.26-.46-1-.6l-.82-.16c-1.5-.31-2.16-1-2.16-2.18C70.46,4,71.8,3,73.88,3a5.28,5.28,0,0,1,1.83.3c.67.26,1,.67,1,1.19a.86.86,0,0,1-1,.86,2.93,2.93,0,0,1-.94-.21,3.17,3.17,0,0,0-1.12-.27c-.39,0-.62.22-.62.48s.19.38.67.47L75,6c1.36.25,2,1,2,2.15,0,1.6-1.29,2.58-3.52,2.58a5.1,5.1,0,0,1-2.2-.42,1.41,1.41,0,0,1-.94-1.23A.88.88,0,0,1,71.33,8.19Z"/>
</svg>